<?xml version="1.0" encoding="UTF-8" standalone="no"?>
<!DOCTYPE svg PUBLIC "-//W3C//DTD SVG 1.1//EN" "http://www.w3.org/Graphics/SVG/1.1/DTD/svg11.dtd">
<svg width="100%" height="100%" viewBox="0 0 1666 680" version="1.1" xmlns="http://www.w3.org/2000/svg" xmlns:xlink="http://www.w3.org/1999/xlink" xml:space="preserve" xmlns:serif="http://www.serif.com/" style="fill-rule:evenodd;clip-rule:evenodd;stroke-linejoin:round;stroke-miterlimit:2;">
    <g transform="matrix(1,0,0,1,-1046.23,-739.84)">
        <path d="M1153.55,1330.15L1272.81,1330.15L1272.81,1413.63L1046.23,1413.63L1046.23,1091.63L1153.55,1091.63L1153.55,1330.15ZM1333.41,906.8C1333.41,815.187 1408.8,739.8 1500.41,739.8C1592.02,739.8 1667.41,815.187 1667.41,906.8C1667.41,998.413 1592.02,1073.8 1500.41,1073.8C1500.39,1073.8 1500.38,1073.8 1500.36,1073.8C1408.77,1073.77 1333.41,998.395 1333.41,906.8ZM1440.73,906.8C1440.73,939.512 1467.65,966.43 1500.36,966.43C1533.07,966.43 1559.99,939.512 1559.99,906.8C1559.99,874.088 1533.07,847.17 1500.36,847.17C1467.65,847.17 1440.73,874.088 1440.73,906.8ZM2038.73,960.46L2104.32,1067.79L2223.57,1067.79L2116.24,906.79L2223.57,745.79L2104.36,745.79L2038.77,853.11L2038.77,745.81L1931.44,745.81L1931.44,1067.81L2038.77,1067.81L2038.73,960.46ZM1848,1073.75C1864.58,1073.75 1892.51,1071.3 1907.63,1066.75L1907.63,942.47C1896.75,956.99 1867.54,966.47 1848,966.47C1815.29,966.47 1788.37,939.552 1788.37,906.84C1788.37,874.128 1815.29,847.21 1848,847.21C1867.54,847.21 1896.75,856.65 1907.63,871.21L1907.63,746.8C1892.51,742.29 1864.63,739.8 1848,739.8C1846.71,739.77 1845.42,739.755 1844.12,739.755C1752.51,739.755 1677.12,815.142 1677.12,906.755C1677.12,998.368 1752.51,1073.76 1844.12,1073.76C1845.42,1073.76 1846.71,1073.74 1848,1073.71L1848,1073.75ZM1153.59,1067.75L1046.23,1067.75L1046.23,745.75L1213.23,745.75C1272.51,745.75 1320.56,787.84 1320.56,847.11C1320.56,892.23 1296.15,933.32 1256.71,940.75L1338.45,1067.75L1219.14,1067.75L1153.55,960.42L1153.59,1067.75ZM1153.59,900.8L1177.44,900.8C1197.07,900.8 1213.22,884.648 1213.22,865.02C1213.22,845.392 1197.07,829.24 1177.44,829.24L1153.59,829.24L1153.59,900.8ZM2235.59,1067.75L2462.17,1067.75L2462.17,984.31L2342.87,984.31L2342.87,948.54L2438.27,948.54L2438.27,865.06L2342.87,865.06L2342.87,829.28L2462.12,829.28L2462.12,745.81L2235.54,745.81L2235.59,1067.75ZM2772.82,1391.35L2776.93,1398.35L2768.2,1398.35L2765.3,1392.7C2763.3,1388.91 2761.67,1386.53 2760.42,1385.54C2759.01,1384.52 2757.29,1384 2755.55,1384.06L2753.71,1384.06L2753.71,1398.35L2746.65,1398.35L2746.65,1363.58L2753.71,1363.58C2760.32,1363.58 2764.02,1363.61 2764.83,1363.67C2766.72,1363.75 2768.58,1364.22 2770.28,1365.06C2771.64,1365.86 2772.77,1367.01 2773.53,1368.39C2774.41,1369.91 2774.86,1371.64 2774.83,1373.39C2774.88,1375.77 2774,1378.09 2772.37,1379.83C2770.53,1381.71 2768.09,1382.89 2765.47,1383.14C2766.34,1383.44 2767.16,1383.89 2767.9,1384.45C2768.78,1385.25 2769.57,1386.15 2770.26,1387.12C2770.46,1387.5 2771.32,1388.91 2772.77,1391.39L2772.82,1391.35ZM2766.49,1376.49C2767.06,1375.72 2767.37,1374.78 2767.35,1373.82C2767.36,1372.89 2767.07,1371.98 2766.52,1371.23C2765.92,1370.45 2765.08,1369.89 2764.14,1369.61C2763.14,1369.28 2760.59,1369.12 2756.57,1369.12L2753.71,1369.12L2753.71,1378.61L2756.57,1378.61C2760.65,1378.61 2763.18,1378.45 2764.16,1378.14C2765.07,1377.87 2765.88,1377.3 2766.44,1376.53L2766.49,1376.49ZM2486,829.28L2545.63,829.28L2545.63,1067.79L2652.96,1067.79L2652.96,829.28L2712.58,829.28L2712.58,745.81L2486,745.81L2486,829.28ZM2354.82,1276.49C2354.5,1295.89 2338.45,1311.67 2319.05,1311.67C2299.64,1311.67 2283.59,1295.89 2283.27,1276.49L2283.27,1091.64L2175.91,1091.64L2175.91,1276.49C2176.56,1354.54 2240.96,1418.4 2319.01,1418.4C2397.07,1418.4 2461.47,1354.54 2462.12,1276.49L2462.12,1091.64L2354.79,1091.64L2354.82,1276.49ZM2000,1300.34L2049.79,1300.34C2045.22,1311.27 2032.55,1330.15 2000,1330.15C1963.23,1330.15 1934.41,1298.6 1934.41,1258.6C1934.41,1215.12 1967.13,1188.98 2000,1187.05C2035.9,1184.93 2051.2,1199.68 2062,1210.47L2135.95,1140.34C2100.3,1104.69 2057.15,1085.68 2000.01,1085.68C1998.72,1085.65 1997.43,1085.63 1996.13,1085.63C1904.52,1085.63 1829.13,1161.02 1829.13,1252.63C1829.13,1344.25 1904.52,1419.63 1996.13,1419.63C1997.43,1419.63 1998.72,1419.62 2000.01,1419.59C2095.91,1419.59 2155.01,1350.77 2155.01,1264.59L2155.01,1222.85L2000,1222.85L2000,1300.34ZM2486,1413.63L2712.58,1413.63L2712.58,1330.15L2593.3,1330.15L2593.3,1294.37L2688.7,1294.37L2688.7,1210.9L2593.3,1210.9L2593.3,1175.12L2712.55,1175.12L2712.55,1091.64L2486,1091.64L2486,1413.63ZM1749.85,1091.63L1857.18,1413.63L1749.82,1413.63L1738.34,1365.93L1654,1365.93L1642.52,1413.63L1535.17,1413.63L1642.5,1091.63L1749.85,1091.63ZM1718.27,1282.44L1696.19,1190.7L1674.11,1282.44L1718.27,1282.44ZM1296.69,1413.62L1523.27,1413.62L1523.27,1330.14L1404,1330.14L1404,1294.36L1499.4,1294.36L1499.4,1210.9L1404,1210.9L1404,1175.12L1523.25,1175.12L1523.25,1091.64L1296.66,1091.64L1296.69,1413.62ZM2794.18,1380.86C2794.18,1386.58 2792.68,1392.21 2789.85,1397.18C2787.03,1402.27 2782.83,1406.46 2777.74,1409.28C2767.65,1415.06 2755.21,1415.06 2745.12,1409.28C2740.03,1406.46 2735.83,1402.27 2733.01,1397.18C2727.2,1387.03 2727.23,1374.52 2733.09,1364.4C2735.91,1359.29 2740.13,1355.1 2745.26,1352.32C2755.3,1346.71 2767.55,1346.71 2777.59,1352.32C2782.72,1355.1 2786.94,1359.29 2789.76,1364.4C2792.63,1369.41 2794.14,1375.09 2794.15,1380.87L2794.18,1380.86ZM2787.81,1380.86C2787.8,1376.21 2786.57,1371.64 2784.24,1367.61C2781.97,1363.5 2778.58,1360.13 2774.45,1357.9C2766.4,1353.4 2756.56,1353.4 2748.51,1357.9C2744.39,1360.14 2741,1363.51 2738.74,1367.61C2734.02,1375.75 2733.98,1385.82 2738.65,1393.99C2740.92,1398.09 2744.29,1401.47 2748.39,1403.74C2756.48,1408.41 2766.48,1408.41 2774.57,1403.74C2778.66,1401.46 2782.03,1398.09 2784.3,1393.99C2786.58,1390 2787.78,1385.47 2787.78,1380.87L2787.81,1380.86Z" style="fill-rule:nonzero;"/>
    </g>
</svg>
